<svg width="24" height="24" viewBox="0 0 24 24" fill="none" xmlns="http://www.w3.org/2000/svg">
<path d="M23.0766 12.4857L13.7653 3.17443C13.5917 2.99968 13.3851 2.86114 13.1576 2.76683C12.93 2.67253 12.686 2.62433 12.4397 2.62505H3.74999C3.45162 2.62505 3.16548 2.74358 2.9545 2.95456C2.74352 3.16554 2.62499 3.45169 2.62499 3.75005V12.4397C2.62427 12.6861 2.67246 12.9301 2.76677 13.1576C2.86108 13.3852 2.99962 13.5918 3.17437 13.7654L12.4856 23.0766C12.8372 23.4281 13.3141 23.6256 13.8112 23.6256C14.3084 23.6256 14.7853 23.4281 15.1369 23.0766L23.0766 15.1369C23.4281 14.7853 23.6255 14.3085 23.6255 13.8113C23.6255 13.3141 23.4281 12.8373 23.0766 12.4857ZM13.8112 21.2204L4.87499 12.2813V4.87505H12.2812L21.2175 13.8113L13.8112 21.2204ZM9.37499 7.87505C9.37499 8.17173 9.28702 8.46174 9.1222 8.70841C8.95737 8.95508 8.72311 9.14734 8.44902 9.26087C8.17493 9.3744 7.87333 9.40411 7.58236 9.34623C7.29139 9.28835 7.02411 9.14549 6.81433 8.93571C6.60455 8.72593 6.46169 8.45866 6.40381 8.16769C6.34594 7.87672 6.37564 7.57512 6.48917 7.30103C6.6027 7.02694 6.79496 6.79267 7.04164 6.62785C7.28831 6.46303 7.57832 6.37505 7.87499 6.37505C8.27282 6.37505 8.65435 6.53309 8.93565 6.81439C9.21696 7.0957 9.37499 7.47723 9.37499 7.87505Z" fill="black" fill-opacity="0.4"/>
</svg>
